<?xml version="1.0" encoding="UTF-8"?><svg id="Camada_2" xmlns="http://www.w3.org/2000/svg" viewBox="0 0 253.74 110"><defs><style>.cls-1{fill:#fff;}.cls-2{fill:#c2012e;}.cls-3{fill:#f3d332;}.cls-4{fill:#213366;}</style></defs><g id="Camada_1-2"><g><g><path d="M21.68,106.63c-2.45,2.25-5.45,3.37-9.01,3.37s-6.56-1.12-9.01-3.35c-2.45-2.23-3.67-5.14-3.67-8.73v-17.92H6.29v17.65c0,1.92,.62,3.49,1.85,4.72s2.74,1.85,4.54,1.85,3.3-.62,4.51-1.85c1.22-1.23,1.82-2.8,1.82-4.72v-17.65h6.34v17.92c0,3.56-1.22,6.46-3.67,8.71Z"/><path d="M31.28,109.54v-29.55h6.97l7.71,11.62c.62,.94,1.35,2.04,2.19,3.3,.84,1.26,1.52,2.28,2.04,3.07l.84,1.26v-19.25h6.38v29.55h-6.75l-7.4-11.06c-.8-1.19-1.67-2.49-2.61-3.9-.95-1.41-1.7-2.54-2.26-3.37l-.72-1.24v19.57h-6.38Z"/><path d="M63.8,109.54v-29.55h6.38v29.55h-6.38Z"/><path d="M76.57,109.54v-29.55h6.97l7.71,11.62c.62,.94,1.35,2.04,2.19,3.3,.84,1.26,1.52,2.28,2.04,3.07l.84,1.26v-19.25h6.38v29.55h-6.75l-7.4-11.06c-.8-1.19-1.67-2.49-2.61-3.9-.95-1.41-1.7-2.54-2.26-3.37l-.72-1.24v19.57h-6.38Z"/><path d="M106.12,109.54l12.79-29.55h6.41l12.46,29.55h-6.12l-1.96-4.7h-14.99l-2.02,4.7h-6.56Zm10.75-9.71h10.73l-2.3-5.52-3.16-7.57c-1.04,3.04-2.01,5.6-2.93,7.67l-2.34,5.43Z"/><path d="M140.23,105.99l2.28-4.93c3.04,2.19,6.29,3.28,9.76,3.28,1.55,0,2.89-.34,4.01-1.03,1.12-.68,1.69-1.53,1.69-2.53s-.48-1.72-1.44-2.23c-.96-.52-2.3-.96-4.04-1.32-1.28-.3-2.38-.59-3.31-.84-.93-.26-1.92-.64-2.99-1.14-1.06-.5-1.93-1.06-2.6-1.66-.67-.61-1.23-1.38-1.69-2.33-.46-.94-.68-2.01-.68-3.19,0-2.71,1.08-4.8,3.24-6.29,2.16-1.49,4.76-2.23,7.8-2.23,4.04,0,7.65,1.05,10.81,3.15l-2.33,4.93c-2.61-1.61-5.44-2.42-8.48-2.42-1.09,0-2.14,.21-3.12,.64-.99,.43-1.48,1.16-1.48,2.19,0,.88,.44,1.56,1.32,2.03,.88,.47,2.26,.9,4.15,1.3,7.51,1.67,11.26,4.82,11.26,9.44,0,2.98-1.21,5.26-3.63,6.84-2.42,1.58-5.27,2.37-8.55,2.37-4.77,0-8.77-1.34-11.99-4.01Z"/><path d="M168.05,105.99l2.28-4.93c3.04,2.19,6.29,3.28,9.76,3.28,1.55,0,2.89-.34,4.01-1.03,1.12-.68,1.69-1.53,1.69-2.53s-.48-1.72-1.44-2.23c-.96-.52-2.3-.96-4.04-1.32-1.28-.3-2.38-.59-3.31-.84-.93-.26-1.92-.64-2.99-1.14-1.06-.5-1.93-1.06-2.6-1.66-.67-.61-1.23-1.38-1.69-2.33-.46-.94-.68-2.01-.68-3.19,0-2.71,1.08-4.8,3.24-6.29,2.16-1.49,4.76-2.23,7.8-2.23,4.04,0,7.65,1.05,10.81,3.15l-2.33,4.93c-2.61-1.61-5.44-2.42-8.48-2.42-1.09,0-2.14,.21-3.12,.64-.99,.43-1.48,1.16-1.48,2.19,0,.88,.44,1.56,1.32,2.03,.88,.47,2.26,.9,4.15,1.3,7.51,1.67,11.26,4.82,11.26,9.44,0,2.98-1.21,5.26-3.63,6.84-2.42,1.58-5.27,2.37-8.55,2.37-4.77,0-8.77-1.34-11.99-4.01Z"/><path d="M194.27,109.54l12.79-29.55h6.41l12.46,29.55h-6.12l-1.96-4.7h-14.99l-2.02,4.7h-6.56Zm10.75-9.71h10.73l-2.3-5.52-3.16-7.57c-1.04,3.04-2.01,5.6-2.93,7.67l-2.34,5.43Z"/><path d="M250.07,106.63c-2.45,2.25-5.45,3.37-9.01,3.37s-6.56-1.12-9.01-3.35c-2.45-2.23-3.67-5.14-3.67-8.73v-17.92h6.29v17.65c0,1.92,.62,3.49,1.85,4.72s2.74,1.85,4.54,1.85,3.3-.62,4.51-1.85c1.22-1.23,1.82-2.8,1.82-4.72v-17.65h6.34v17.92c0,3.56-1.22,6.46-3.67,8.71Z"/></g><g><path class="cls-4" d="M104.08,13.15V48.94c0,1.32,.28,2.63,.81,3.84h0c1.49,3.38,6.27,5.61,9.89,6.3,7.3,1.4,10.68,2.49,12.08,4.54,1.4-2.04,4.78-3.13,12.08-4.54,3.63-.7,8.4-2.92,9.89-6.3h0c.53-1.21,.81-2.52,.81-3.84V13.15h-45.58Z"/><path class="cls-4" d="M150.37,1.41V48.94c0,1.43-.29,2.82-.87,4.13-.74,1.67-2.27,3.22-4.44,4.48-1.77,1.03-3.94,1.84-5.97,2.23-7.51,1.44-10.45,2.51-11.63,4.24l-.59,.85-.59-.85c-1.19-1.73-4.12-2.8-11.63-4.24-2.03-.39-4.2-1.2-5.97-2.23-2.17-1.26-3.7-2.81-4.44-4.48-.58-1.31-.87-2.7-.87-4.13V1.41h12.69V3.61h4.46V1.41h12.69V3.61h4.46V1.41h12.69m1.41-1.41h-15.52V2.2h-1.64V0h-15.52V2.2h-1.63V0h-15.52V48.94c0,1.63,.33,3.21,.99,4.7,.86,1.95,2.6,3.72,5.02,5.13,1.9,1.1,4.24,1.98,6.41,2.4,6.91,1.33,9.82,2.32,10.74,3.65l.59,.85,1.16,1.69,1.16-1.69,.59-.85c.92-1.34,3.83-2.33,10.74-3.65,2.18-.42,4.52-1.29,6.41-2.4,2.42-1.41,4.16-3.18,5.02-5.13,.66-1.49,.99-3.07,.99-4.7V0h0Z"/><polygon class="cls-2" points="138.39 2.12 138.39 4.32 132.51 4.32 132.51 2.12 121.24 2.12 121.24 4.32 115.36 4.32 115.36 2.12 104.08 2.12 104.08 4.32 104.08 12.65 149.66 12.65 149.66 4.32 149.66 2.12 138.39 2.12"/><g><path class="cls-1" d="M107.86,10.66l-1.7-4.11h.75l.98,2.34,.32,.92c.14-.41,.24-.72,.32-.92l.98-2.34h.75l-1.7,4.11h-.72Z"/><path class="cls-1" d="M113.45,10.66V6.55h3.19v.63h-2.45v1h2.31v.63h-2.31v1.21h2.54v.63h-3.28Z"/><path class="cls-1" d="M120.05,10.66V6.55h1.72c.58,0,1.03,.15,1.34,.44,.31,.29,.47,.67,.47,1.13,0,.28-.07,.55-.22,.79-.15,.25-.35,.43-.62,.55l.9,1.2h-.9l-.71-.99c-.12,0-.34,.01-.65,.01h-.59v.98h-.73Zm.73-1.61h1.03c.3,0,.55-.09,.73-.27s.27-.4,.27-.67-.09-.49-.27-.67c-.18-.18-.42-.27-.72-.27h-1.04v1.86Z"/><path class="cls-1" d="M127,10.66V6.55h.73v4.11h-.73Z"/><path class="cls-1" d="M132.42,10.66v-3.47h-1.44v-.63h3.62v.63h-1.44v3.47h-.73Z"/><path class="cls-1" d="M136.92,10.66l1.85-4.11h.7l1.85,4.11h-.75l-.31-.71h-2.26l-.32,.71h-.75Zm1.33-1.29h1.74l-.46-1.05c-.05-.12-.12-.26-.19-.42-.07-.16-.13-.29-.17-.39l-.06-.16c-.14,.38-.27,.71-.4,.98l-.47,1.04Z"/><path class="cls-1" d="M144.28,10.13l.29-.56c.4,.32,.85,.48,1.36,.48,.24,0,.44-.05,.62-.16,.18-.11,.27-.25,.27-.42,0-.12-.05-.22-.14-.3-.09-.08-.19-.14-.29-.17-.1-.03-.24-.07-.42-.12s-.33-.09-.45-.13-.26-.09-.41-.16-.27-.14-.35-.23c-.09-.08-.16-.18-.23-.31-.06-.13-.09-.27-.09-.42,0-.36,.15-.65,.44-.85,.29-.2,.64-.31,1.05-.31,.54,0,1.02,.15,1.46,.44l-.29,.56c-.36-.23-.75-.34-1.17-.34-.11,0-.21,.01-.32,.04-.11,.03-.2,.08-.29,.16-.09,.08-.13,.17-.13,.29,0,.15,.07,.26,.21,.34,.14,.08,.36,.15,.66,.22,.22,.07,.41,.13,.57,.18,.16,.05,.32,.13,.48,.22,.16,.09,.28,.21,.36,.36,.08,.15,.12,.32,.12,.5,0,.4-.16,.71-.49,.93-.33,.21-.72,.32-1.17,.32-.67,0-1.22-.2-1.64-.59Z"/></g><g><g><path class="cls-3" d="M116.99,54.26c-.07,.39-.13,.72,.1,1.06,.17-.15,.34-.3,.51-.45,.47,0,.54-.46,.81-.73-.13,.46-.21,.81,.13,1.2,.22-.18,.44-.37,.66-.55,.09,0,.2,0,.28-.03,.22-.1,.35-.25,.43-.49,.5-.16,.93-.14,1.37,.17,.15,.1,.21,.29,.27,.46,.54-.69,.17-1.48-.61-1.69-.79-.85,.79-2.84,1.34-3.55,0,.54-.17,.91-.44,1.36,.71-.29,1.17-.75,1.64-1.37,1.21,1.16,2.37,2.31,3.77,3.22,.91-.07,1.68,.11,2.34,.47-1.27-.03-2.69-.31-3.23,1.15-.17-.59-.02-1.01,.33-1.47-.64-.43-1.87-.58-2.42-.25-.96,.59-1.19,1.75-.66,2.53,.18,.26,.38,.03,.57,.07-.13-.63-.05-1.23,.44-1.61,.23-.18,.63-.18,.63-.18-.16,.13-.3,.22-.39,.42-.21,.46-.27,1.06,.17,1.4,.08,.06,.21,.05,.31,.05,3.29-.05,6.58-.03,9.87-.1,.16,0,.4,.05,.46-.16,.09-.31,.52-.68,.52-.69,1.07-.37,1.95-.66,2.52-1.74,1.23-4.4-4.45-6.33-.79-7.1-.07,.14-.21,.23-.26,.38,.88,.02,1.59-.51,1.35-1.49-.1-.4-.36-.79-.35-1.23,.7-1.65,1.77-1.02,.43-3.19-.21-.37-.62,1.13-1.04,1.39,.04-.28,.17-.48,.31-.72-.75,.39-1.55,.57-1.57,1.76-.02,1.25,1.58,2.3-.7,2.22-2.64,2.57,2.88,3.44,1.58,7.35-.25,.31-.59,.41-.97,.34-.28-.27-.11-.67-.16-1.03-.46-2.78-1.67-4.96-4.17-6.16,1.35-.4,2.41-1.1,3.3-2.23-1.05,.1-2.06,.1-3.1-.09,2.13-.12,4.01-.63,5.08-2.72-1.35,.1-2.59-.09-3.89-.47,4.01,.39,9.18-1.23,10.41-4.25-2.86,1.24-6.14,2.62-9.26,2.16,3.54-.49,8.94-2.04,10.56-6.24-1.67,1.44-4.74,3.23-9.01,3.44-.01,0,9.11-2.03,10.03-7.34-4.5,3.94-9.05,5.23-9.05,5.23,0,0,9.91-4.8,9.91-10.05-1.13,1.42-2.78,3.21-5.1,4.86-1.56,1.11-3.05,1.9-4.33,2.47,1.02-.49,2.89-1.55,4.43-3.63,2.24-3.02,2.35-6.22,2.33-7.32-1.03,2.43-2.8,5.42-5.9,7.69-.37,.27-.75,.52-1.12,.75,.68-.53,2.14-1.82,2.91-4.02,1.16-3.33-.16-6.22-.45-6.82,.03,1.19-.1,3.29-1.19,5.57-.63,1.31-1.39,2.29-2.02,2.97,.34-.75,.74-1.93,.76-3.39,.05-3.06-1.59-5.21-2.14-5.88,.3,1.5,.52,3.56,.19,5.93-.13,.94-.33,1.79-.55,2.54,0-.78-.11-1.89-.6-3.08-1.24-2.99-3.96-4.24-4.69-4.55,.69,1.24,1.4,2.75,1.97,4.52,.25,.77,.44,1.51,.6,2.21-.39-.67-1.28-1.99-2.93-2.97-2.09-1.24-4.12-1.19-4.88-1.13,3.02,1.52,4.7,3.51,5.49,4.61,2.23,3.09,4.15,8.37,2.01,12.75-.56,1.15-1.26,1.96-1.73,2.44-.09-.15-.18-.3-.26-.45-.09-.15-.16-.3-.25-.45,.14,.1,.27,.22,.41,.32,.19-1.18,.02-2.12-.56-3.15,.25,.17,.5,.34,.75,.51-.24-1.4-.99-2.29-2.01-3.18,.45,.07,.88,.21,1.32,.31-.91-1.5-2.34-1.81-3.95-1.95,.36-.22,.72-.45,1.08-.67-2.28-.19-6.06-.41-5.58,2.96-1.57,.46-2.51,1.62-1.22,3.04,0-.06-.06-.13-.01-.19,.57-.77,2-.61,2.85-.61,0,0,.01-.01,.01,.02,0,.08-.23,.26-.12,.36,.04,.03,.24,.28,.27,.43,.03,.15-.13,.49-.18,.54-2.3,2.7-3.95,6.9-3.54,10.47,.39-.57,.7-1.18,1.01-1.81-.22,1.27-.41,2.52-.86,3.73,.49-.13,.83-.38,1.15-.79-1.15,3.26-4.96,5-4.86,6.14,.1-.1,.2-.2,.3-.3,.08,.02,.26,.05,.48-.03,.2-.07,.32-.2,.37-.26Zm5.05-20.55s-.03-.03-.05-.04c.27-.77,.7-.85,1.44-.83-.46,.29-.93,.58-1.39,.88Z"/><path class="cls-4" d="M122.04,33.7s-.03-.03-.05-.04c.27-.77,.7-.85,1.44-.83-.46,.29-.93,.58-1.39,.88Z"/></g><g><polygon class="cls-1" points="126.58 25.66 120.93 26.36 123.24 27.85 120.49 27.69 122.23 29.83 119.67 28.83 120.67 31.39 118.53 29.65 118.69 32.4 117.2 30.09 116.5 34.41 115.8 30.09 114.31 32.4 114.47 29.65 112.34 31.39 113.33 28.83 110.77 29.83 112.51 27.69 109.76 27.85 112.08 26.36 106.42 25.66 112.08 24.96 109.76 23.47 112.51 23.63 110.77 21.49 113.33 22.49 112.34 19.93 114.47 21.67 114.31 18.92 115.8 21.24 116.5 16.91 117.2 21.24 118.69 18.92 118.53 21.67 120.67 19.93 119.67 22.49 122.23 21.49 120.49 23.63 123.24 23.47 120.93 24.96 126.58 25.66"/><circle class="cls-4" cx="116.5" cy="25.66" r="2.2"/></g></g></g></g></g></svg>